# xmcd
#
# Track frame offsets: 
#        150
#        12607
#        26199
#        39945
#        52940
#        65295
#        78202
#        92526
#        107094
#        120107
#        133852
#        149186
#        162796
#        175618
#        189100
#        202792
#        215499
#        229310
#
# Disc length: 3222 seconds
#
# Revision: 4
# Processed by: cddbd v1.5.2PL0 Copyright (c) Steve Scherf et al.
# Submitted via: ExactAudioCopy v0.95b2
#
DISCID=e80c9412
DTITLE=Memphis Minnie - the essential - Disc One
DYEAR=2001
DGENRE=Blues
TTITLE0=I'm Goin' Back Home
TTITLE1=My Butcher Man
TTITLE2=Where is My Good Man
TTITLE3=That Will Be Alright (with Kansas Joe McCoy)
TTITLE4=I Never Told A Lie
TTITLE5=What's The Matter With The Mill?
TTITLE6=Let's Go To Town
TTITLE7=Ain't No Use Trying To Tell On Me
TTITLE8=Drunken Barrel House Blues
TTITLE9=Going Back To Texas
TTITLE10=Memphis Minnie (Jitis Blues #1)
TTITLE11=New Dirty Dozen
TTITLE12=Today Today Blues
TTITLE13=Too Late
TTITLE14=New Orleans Stop Time (with Bumble Bee Slim)
TTITLE15=Boy Friend Blues
TTITLE16=I'm A Bad Luck Woman
TTITLE17=Me And My Chauffeur
EXTD=YEAR: 2001
EXTT0=
EXTT1=
EXTT2=
EXTT3=
EXTT4=
EXTT5=
EXTT6=
EXTT7=
EXTT8=
EXTT9=
EXTT10=
EXTT11=
EXTT12=
EXTT13=
EXTT14=
EXTT15=
EXTT16=
EXTT17=
PLAYORDER=
